<svg xmlns="http://www.w3.org/2000/svg" viewBox="0 0 128 128">
  <defs>
    <linearGradient id="g" x1="0" x2="1" y1="0" y2="1">
      <stop offset="0" stop-color="#f59e0b"/>
      <stop offset="1" stop-color="#16a34a"/>
    </linearGradient>
  </defs>
  <circle cx="64" cy="64" r="62" fill="#fff" stroke="#e5e7eb"/>
  <g transform="translate(10,6)">
    <path d="M86 28c-6-6-16-8-28-6-12 2-22 8-28 16-6 8-8 18-6 28 2 10 8 20 18 24 10 4 22 2 32-4 10-6 18-16 20-26 2-10 0-20-8-32z" fill="url(#g)"/>
    <path d="M64 16c8-8 18-10 26-10-6 8-12 12-20 14-4 0-6 0-6-4z" fill="#16a34a"/>
    <circle cx="46" cy="52" r="3" fill="#065f46" opacity=".25"/>
  </g>
</svg>
